/* XPM */
static char * extras0_xpm[] = {
"24 24 10 1",
" 	c None",
".	c #1A1B1A",
"+	c #191718",
"@	c #ABABAC",
"#	c #595959",
"$	c #9A9A9A",
"%	c #A9D0E3",
"&	c #A4A3A4",
"*	c #83BAD8",
"=	c #355C76",
"                        ",
"                        ",
"         .+...          ",
"     ..+.@#####.+.+     ",
"    +$@%@&&&&######.    ",
"   .$$$%&&&@@&######.   ",
"   +$$$%%**%*%===###.   ",
"   .$%*%*%%%%%*====#.   ",
"   #.********%%====.$   ",
"   .#.+.+.%%*%=.++.&.   ",
"   .##.##+.....&&@%&.   ",
"   .##.$#.$$$&&@&&%&.   ",
"   .###+.$$$$$@&&%%&.   ",
"   +###$#.$$$$$&&%%@+   ",
"   +###$$#+$$$$@&%&&.   ",
"    .##$$$#.+$$&&%&#.   ",
"    .##$$$$$#.+.&%&.    ",
"    .##$$$$$$$$#...     ",
"     ###$$$$$$$@###     ",
"     .##$$$$$$&&&%.     ",
"      ..###$$$@&..      ",
"        ........        ",
"                        ",
"                        "};
