/* XPM */
static char * icon_1_xpm[] = {
"22 22 8 1",
" 	c None",
".	c #5A395A",
"+	c #DEBD5A",
"@	c #000000",
"#	c #FFFFFF",
"$	c #FFFFF7",
"%	c #DEDEBD",
"&	c #FFFF9E",
"   .+++++++++++++++. .",
"   .++++++++++++++++.+",
"   ..++++++++++++++.++",
"  .+++++++++++++++++++",
" ..+++++++++++++++++++",
" .++++++++++++++++++++",
" .++++++++++@@@@++++++",
" .++@@@@+++@####@+++++",
" .+@####@+@#####@+++++",
"  .@####@+@######@@@@+",
"   @#####@@######@$%.+",
"   @#####@@######@%$..",
"   @#####@$@#####@$%. ",
"   @@###@$%@####@$%.  ",
"     @@@$%$%@@@@$...  ",
"       .%.%$%$%$%.    ",
"       .$%.%$%$.$.    ",
"       ..$%$%$....    ",
"     ..&&.$%$..&&&.   ",
"     .&&.&....&&&&&.  ",
"    .&.&.&.&&.&&&&&&. ",
"    .&.&.&.&.&&&&&&&&."};
